PathFileType	4	(X/Y/Z)	\\move.snu.ac.kr\motion\Animal\091204_091205_Bird\091205_bird\Project 2\Capture day 2\Session 1\pigeon_021.trc
DataRate	CameraRate	NumFrames	NumMarkers	Units	OrigDataRate	OrigDataStartFrame	OrigNumFrames
240.0	240.0	10	14	mm	240.0	244	2193
Frame#	Time	14MarkersBird:Head			14MarkersBird:C_back			14MarkersBird:Spine			14MarkersBird:L-shoulder			14MarkersBird:L-elbow			14MarkersBird:L-wrist			14MarkersBird:L-hand			14MarkersBird:R-shoulder			14MarkersBird:R-elbow			14MarkersBird:R-Wrist			14MarkersBird:R-hand			14MarkersBird:C_Tail			14MarkersBird:L-Tale			14MarkersBird:R-Tale			
		X1	Y1	Z1	X2	Y2	Z2	X3	Y3	Z3	X4	Y4	Z4	X5	Y5	Z5	X6	Y6	Z6	X7	Y7	Z7	X8	Y8	Z8	X9	Y9	Z9	X10	Y10	Z10	X11	Y11	Z11	X12	Y12	Z12	X13	Y13	Z13	X14	Y14	Z14	

1113	4.633	-1778.47656	670.41876	-2372.65381	-1717.67151	671.28247	-2360.82666	-1662.16846	665.91333	-2359.39600	-1746.96472	664.70599	-2346.39258	-1733.20715	657.89606	-2317.02295	-1766.51147	638.04785	-2300.60693	-1778.68738	627.32141	-2282.05737	-1745.90027	662.83087	-2390.84790	-1729.17102	664.33337	-2411.93091	-1756.26917	644.99677	-2436.70410	-1766.30054	631.27112	-2469.35718	-1558.33289	600.18414	-2343.80420	-1632.94592	622.57013	-2267.67114	-1609.48633	628.18396	-2453.90723	
1114	4.637	-1796.68164	665.30084	-2373.14087	-1735.92126	666.92487	-2361.36865	-1680.47058	661.60687	-2360.09253	-1765.29834	660.08917	-2346.89429	-1751.57056	651.10901	-2317.35498	-1786.86646	630.20813	-2305.26953	-1800.03967	615.61102	-2290.01855	-1764.23267	658.06555	-2391.12134	-1748.14880	657.31879	-2412.92261	-1777.54639	636.45392	-2433.86743	-1789.94861	617.77399	-2463.81274	-1577.53845	593.37750	-2344.85547	-1650.46790	616.93658	-2268.47266	-1627.51416	623.16577	-2454.00732	
1115	4.642	-1815.05249	660.07025	-2373.62891	-1754.37976	662.52509	-2361.94653	-1698.61731	656.85583	-2360.49683	-1783.78088	655.46021	-2347.43164	-1769.47546	645.18469	-2317.92700	-1806.67212	624.43579	-2309.53662	-1820.30176	606.47235	-2297.57520	-1782.70398	653.42603	-2391.38940	-1766.65308	651.32068	-2413.53979	-1798.14014	630.07904	-2431.06982	-1812.21716	607.15619	-2458.20874	-1596.69836	587.14978	-2345.75122	-1668.17358	611.27246	-2269.29492	-1645.71924	617.91852	-2454.04199	
1116	4.646	-1833.58594	654.71082	-2374.12305	-1773.07178	658.01416	-2362.56079	-1718.16321	651.51160	-2360.72412	-1802.40857	650.75256	-2348.02124	-1786.94568	640.15765	-2318.68433	-1825.83337	620.64313	-2313.02344	-1839.41211	599.89270	-2303.93896	-1801.30127	648.80701	-2391.68262	-1784.59937	646.43701	-2413.80981	-1817.97095	625.88275	-2428.64258	-1832.84558	599.46851	-2453.29102	-1615.80188	581.46857	-2346.44678	-1686.05225	605.53693	-2270.10645	-1664.07239	612.34082	-2453.96729	
1117	4.650	-1852.26465	649.22083	-2374.63501	-1791.96985	653.28278	-2363.19458	-1736.93738	646.85553	-2361.05322	-1821.19482	645.90082	-2348.69385	-1804.07666	636.01923	-2319.62646	-1844.42786	618.66211	-2315.54077	-1857.28748	595.72058	-2308.48462	-1820.00854	644.10785	-2392.00439	-1802.02173	642.63940	-2413.74365	-1837.02539	623.72803	-2426.81445	-1851.66467	594.58527	-2449.61182	-1634.85059	576.20856	-2346.91699	-1704.10156	599.82874	-2270.88159	-1682.50342	606.47205	-2453.75342	
1118	4.654	-1871.08215	643.59271	-2375.17529	-1811.06201	648.27972	-2363.86523	-1755.89355	642.06567	-2361.34766	-1840.08264	640.83649	-2349.44434	-1820.99658	632.69971	-2320.80957	-1862.56360	618.17511	-2317.08130	-1873.89124	593.68219	-2310.89795	-1838.80225	639.29651	-2392.34277	-1819.01221	639.80280	-2413.26855	-1855.33691	623.29553	-2425.65454	-1868.60657	592.24359	-2447.47437	-1653.88037	571.20856	-2347.16455	-1722.33142	594.30457	-2271.54028	-1700.93201	600.49738	-2453.42480	
1119	4.658	-1890.00391	637.83612	-2375.74487	-1830.33118	643.00806	-2364.58569	-1774.96899	637.17310	-2361.62085	-1859.06262	635.54626	-2350.29517	-1837.84143	630.02234	-2322.32373	-1880.25537	618.75970	-2317.79663	-1889.23840	593.45880	-2311.29565	-1857.63354	634.31384	-2392.65698	-1835.76929	637.69073	-2412.27417	-1872.99561	624.15692	-2425.09106	-1883.63770	592.14429	-2446.90454	-1672.91882	566.32910	-2347.21802	-1740.78320	589.14056	-2272.02319	-1719.31372	594.66211	-2453.03125	
1120	4.662	-1908.98877	631.94061	-2376.33911	-1849.70544	637.47064	-2365.33838	-1794.13367	632.17590	-2361.85474	-1878.12292	630.03955	-2351.23633	-1854.75598	627.78174	-2324.25171	-1897.63623	619.96783	-2317.98169	-1903.46973	594.67889	-2310.09521	-1876.53015	629.12769	-2392.93896	-1852.54285	635.96796	-2410.69702	-1890.11121	625.82831	-2424.96680	-1896.89819	593.96014	-2447.59180	-1691.95007	561.51697	-2347.09351	-1759.51282	584.50519	-2272.28687	-1737.65210	589.21503	-2452.67139	
1121	4.667	-1928.00720	625.92249	-2376.96045	-1869.13635	631.69904	-2366.10986	-1813.35217	627.05005	-2362.07202	-1897.23657	624.30328	-2352.21924	-1871.87976	625.73969	-2326.62085	-1914.77319	621.30981	-2317.86060	-1916.77979	596.94977	-2307.76294	-1895.39319	623.75104	-2393.17358	-1869.53394	634.31787	-2408.50244	-1906.82104	627.80261	-2425.11157	-1908.67712	597.39655	-2449.02930	-1710.94238	556.74347	-2346.80249	-1778.57764	580.49384	-2272.29248	-1755.97498	584.39526	-2452.44312	
1122	4.671	-1947.02026	619.79242	-2377.59473	-1888.55115	625.77881	-2366.89185	-1832.54614	621.76996	-2362.26221	-1916.39441	618.42310	-2353.22974	-1889.32129	623.66022	-2329.39771	-1931.81519	622.36224	-2317.62939	-1929.51538	600.04779	-2304.90601	-1914.24182	618.20471	-2393.37183	-1886.89282	632.47363	-2405.79688	-1923.26013	629.58618	-2425.37646	-1919.38391	602.11719	-2450.59937	-1729.82227	552.06091	-2346.34692	-1798.04443	577.13397	-2272.03027	-1774.36560	580.35901	-2452.43945	
